<svg width="71" height="38" viewBox="0 0 71 38" fill="none" xmlns="http://www.w3.org/2000/svg">
<path d="M7.33545 5.729C8.31068 5.72905 9.25645 5.93018 10.1724 6.30225L10.1763 6.3042C11.0355 6.70519 11.8087 7.24918 12.4956 7.93604L12.4995 7.93994C13.0509 8.56657 13.4923 9.25836 13.8618 10.0337L14.0161 10.3706V10.3726C14.3886 11.2895 14.5893 12.2926 14.5894 13.3237C14.5894 14.3834 14.3886 15.3581 14.0161 16.2749V16.2759C13.6167 17.2174 13.1302 18.0487 12.4985 18.7378L12.4956 18.7397C11.8945 19.3408 11.227 19.8332 10.4927 20.1968L10.1743 20.3442C9.25719 20.7455 8.3108 20.9467 7.33545 20.9468C6.30359 20.9468 5.3839 20.7465 4.52197 20.3442V20.3433C3.63402 19.9703 2.85992 19.4259 2.229 18.7378V18.7368C1.54156 18.0486 1.02629 17.2189 0.654785 16.2769L0.51416 15.9292C0.211897 15.1122 0.0805664 14.2495 0.0805664 13.3237C0.0805773 12.2943 0.252676 11.2909 0.654785 10.3716C0.980515 9.57024 1.41586 8.85607 1.97998 8.21045L2.22998 7.93701C2.86151 7.24854 3.63566 6.70395 4.52295 6.30322H4.52393C5.38465 5.93024 6.30362 5.729 7.33545 5.729ZM7.33545 9.83252C6.89612 9.83252 6.51044 9.94153 6.1499 10.1079C5.76214 10.3021 5.42919 10.5523 5.15186 10.8296C4.84836 11.1614 4.62758 11.5207 4.46143 11.936L4.46045 11.939C4.26718 12.3809 4.18409 12.8514 4.18408 13.3237C4.18408 13.7618 4.24741 14.1555 4.39307 14.5435L4.46045 14.7095L4.4624 14.7134C4.60908 15.1044 4.79672 15.4469 5.0415 15.7085L5.1499 15.8159L5.15771 15.8237L5.26318 15.9438C5.4802 16.1764 5.72775 16.3622 6.00635 16.5015L6.14795 16.5669L6.15479 16.5698H6.15381C6.50851 16.7608 6.89252 16.8442 7.33545 16.8442C7.72063 16.8442 8.13403 16.7612 8.54834 16.5679L8.55127 16.5669C8.93587 16.402 9.26645 16.1539 9.57178 15.8208L9.57471 15.8188C9.84683 15.5467 10.0677 15.1616 10.2642 14.7134C10.4309 14.2687 10.5151 13.8244 10.5151 13.3237C10.5151 12.8531 10.4324 12.3827 10.2671 11.9399C10.0717 11.5214 9.84911 11.16 9.57178 10.8267C9.26622 10.5495 8.93491 10.3017 8.55029 10.1089C8.13063 9.94123 7.71714 9.83258 7.33545 9.83252Z" fill="#369BFD" stroke="#369BFD" stroke-width="0.161651"/>
<path d="M34.4038 13.2812C34.6176 13.2511 34.8151 13.4008 34.8451 13.6146L37.0277 29.1446C37.0578 29.3585 36.9092 29.5567 36.6954 29.5868L24.5346 31.2959C24.3208 31.3259 24.1224 31.1764 24.0923 30.9626L21.9097 15.4326C21.8797 15.2187 22.0292 15.0203 22.243 14.9903L34.4038 13.2812ZM26.7622 18.0118C26.6368 18.0295 26.5493 18.1456 26.5669 18.271L27.7867 26.9504C27.8043 27.0758 27.9205 27.1633 28.0459 27.1457L32.2323 26.5573C32.3577 26.5397 32.4452 26.4236 32.4276 26.2981L31.2078 17.6188C31.1902 17.4934 31.074 17.4058 30.9486 17.4235L26.7622 18.0118Z" fill="#369BFD" stroke="#369BFD" stroke-width="0.161651"/>
<path d="M52.2082 0.964969C52.4219 0.995111 52.5705 1.19335 52.5405 1.40712L52.4769 1.85971C52.4594 1.98502 52.5469 2.10128 52.6722 2.11891L59.5267 3.08224C59.7405 3.11233 59.8892 3.30962 59.8592 3.52343L59.4325 6.55903C59.4025 6.77284 59.205 6.92247 58.9912 6.89246L56.0959 6.48554C55.9705 6.46793 55.8546 6.55466 55.8368 6.67989L54.829 13.8506C54.8117 13.9739 54.8958 14.0886 55.0185 14.109L58.952 14.7565C59.1616 14.791 59.3053 14.9862 59.2758 15.1965L58.8485 18.2369C58.8183 18.4518 58.6189 18.6016 58.4043 18.5699L43.6488 16.3916C43.4362 16.3603 43.2885 16.1625 43.3184 15.9498L45.5013 0.417826C45.5313 0.203991 45.7297 0.0544834 45.9436 0.0845359L52.2082 0.964969ZM49.3662 4.45103C49.241 4.43367 49.1256 4.52124 49.108 4.64649L47.9513 12.8771C47.9339 13.0023 48.0205 13.1184 48.1456 13.1362L50.4521 13.4603C50.5773 13.4778 50.6935 13.3902 50.7113 13.265L51.868 5.03438C51.8856 4.90904 51.798 4.79289 51.6727 4.77518L49.3662 4.45103Z" fill="#369BFD" stroke="#369BFD" stroke-width="0.161651"/>
<rect x="58.2202" y="21.2991" width="6.02041" height="6.02041" rx="3.0102" fill="#FFD129"/>
<path d="M68.2236 4.11583L65.9524 12.6013C65.9522 12.6023 65.9513 12.603 65.9502 12.6032C65.9489 12.6033 65.948 12.6044 65.9479 12.6057L65.9476 12.6181C65.9476 12.6194 65.9474 12.6208 65.9471 12.622L64.2373 19.0146L64.1409 19.3735C64.0994 19.5278 63.9475 19.6254 63.7899 19.5989L63.4232 19.5373L60.6841 19.0783L60.4229 19.0343C60.2573 19.0063 60.144 18.8516 60.1674 18.6853L61.2952 10.6606L62.4613 3.28922L62.5227 2.90001C62.5488 2.735 62.7008 2.62026 62.8666 2.64048L63.2578 2.68816L67.6154 3.21578L68.0831 3.27254C68.2703 3.29525 68.3941 3.4784 68.3454 3.66058L68.2236 4.11583Z" fill="#369BFD"/>
<mask id="path-6-outside-1_5146_4735" maskUnits="userSpaceOnUse" x="64.6359" y="8.69073" width="6.11667" height="6.11667" fill="black">
<rect fill="white" x="64.6359" y="8.69073" width="6.11667" height="6.11667"/>
<path d="M69.4486 13.531C69.4288 13.6057 69.3569 13.6544 69.2801 13.6451L65.9286 13.2397C65.8351 13.2284 65.7732 13.1369 65.7974 13.0459L66.59 10.0639C66.612 9.98116 66.697 9.9319 66.7798 9.9539L70.0107 10.8127C70.0935 10.8347 70.1428 10.9197 70.1208 11.0025L69.4486 13.531Z"/>
</mask>
<path d="M69.4486 13.531C69.4288 13.6057 69.3569 13.6544 69.2801 13.6451L65.9286 13.2397C65.8351 13.2284 65.7732 13.1369 65.7974 13.0459L66.59 10.0639C66.612 9.98116 66.697 9.9319 66.7798 9.9539L70.0107 10.8127C70.0935 10.8347 70.1428 10.9197 70.1208 11.0025L69.4486 13.531Z" fill="#369BFD"/>
<path d="M65.9286 13.2397L65.9659 12.9318L65.9286 13.2397ZM69.2801 13.6451L69.2429 13.953L69.2801 13.6451ZM69.2801 13.6451L69.3174 13.3372L65.9659 12.9318L65.9286 13.2397L65.8914 13.5476L69.2429 13.953L69.2801 13.6451ZM65.7974 13.0459L66.0971 13.1256L66.8898 10.1436L66.59 10.0639L66.2903 9.98426L65.4976 12.9662L65.7974 13.0459ZM66.7798 9.9539L66.7001 10.2537L69.931 11.1125L70.0107 10.8127L70.0904 10.513L66.8594 9.65415L66.7798 9.9539ZM70.1208 11.0025L69.821 10.9228L69.1489 13.4513L69.4486 13.531L69.7484 13.6107L70.4205 11.0821L70.1208 11.0025ZM70.0107 10.8127L69.931 11.1125C69.8483 11.0905 69.799 11.0056 69.821 10.9228L70.1208 11.0025L70.4205 11.0821C70.4865 10.8338 70.3387 10.579 70.0904 10.513L70.0107 10.8127ZM66.59 10.0639L66.8898 10.1436C66.8678 10.2264 66.7829 10.2757 66.7001 10.2537L66.7798 9.9539L66.8594 9.65415C66.6111 9.58814 66.3563 9.73594 66.2903 9.98426L66.59 10.0639ZM65.9286 13.2397L65.9659 12.9318C66.0594 12.9431 66.1213 13.0345 66.0971 13.1256L65.7974 13.0459L65.4976 12.9662C65.425 13.2394 65.6108 13.5137 65.8914 13.5476L65.9286 13.2397ZM69.2801 13.6451L69.2429 13.953C69.4732 13.9809 69.6888 13.8348 69.7484 13.6107L69.4486 13.531L69.1489 13.4513C69.1687 13.3766 69.2406 13.3279 69.3174 13.3372L69.2801 13.6451Z" fill="#369BFD" mask="url(#path-6-outside-1_5146_4735)"/>
<path d="M42.1182 12.7976L42.3417 21.5788C42.3417 21.5799 42.3411 21.5809 42.3401 21.5813C42.3389 21.5818 42.3383 21.5831 42.3386 21.5843L42.3419 21.5963C42.3422 21.5976 42.3424 21.599 42.3424 21.6003L42.512 28.2154L42.5211 28.5869C42.525 28.7466 42.4069 28.8832 42.2482 28.9024L41.8791 28.9471L39.1221 29.2822L38.8591 29.3139C38.6923 29.334 38.5399 29.2176 38.5152 29.0515L37.3255 21.0357L36.3576 13.6357L36.3063 13.2451C36.2846 13.0794 36.3979 12.9264 36.5627 12.8988L36.9514 12.8338L41.2802 12.1065L41.7448 12.0285C41.9308 11.9973 42.1013 12.1379 42.1062 12.3265L42.1182 12.7976Z" fill="#369BFD"/>
<mask id="path-9-outside-2_5146_4735" maskUnits="userSpaceOnUse" x="41.1922" y="17.6139" width="5.13394" height="5.13394" fill="black">
<rect fill="white" x="41.1922" y="17.6139" width="5.13394" height="5.13394"/>
<path d="M45.9462 21.3933C45.9483 21.4706 45.8932 21.5377 45.8169 21.5505L42.4877 22.1103C42.3948 22.1259 42.3096 22.0557 42.307 21.9616L42.2232 18.8772C42.2209 18.7916 42.2884 18.7203 42.374 18.718L45.7159 18.6272C45.8016 18.6248 45.8729 18.6924 45.8752 18.778L45.9462 21.3933Z"/>
</mask>
<path d="M45.9462 21.3933C45.9483 21.4706 45.8932 21.5377 45.8169 21.5505L42.4877 22.1103C42.3948 22.1259 42.3096 22.0557 42.307 21.9616L42.2232 18.8772C42.2209 18.7916 42.2884 18.7203 42.374 18.718L45.7159 18.6272C45.8016 18.6248 45.8729 18.6924 45.8752 18.778L45.9462 21.3933Z" fill="#369BFD"/>
<path d="M45.8752 18.778L46.1852 18.7696L45.8752 18.778ZM42.4877 22.1103L42.4363 21.8044L42.4877 22.1103ZM45.8169 21.5505L45.7655 21.2446L45.8169 21.5505ZM45.9462 21.3933L45.6362 21.4018L45.9462 21.3933ZM45.8169 21.5505L45.7655 21.2446L42.4363 21.8044L42.4877 22.1103L42.5392 22.4161L45.8683 21.8564L45.8169 21.5505ZM42.307 21.9616L42.617 21.9531L42.5333 18.8688L42.2232 18.8772L41.9132 18.8856L41.9969 21.97L42.307 21.9616ZM42.374 18.718L42.3824 19.028L45.7244 18.9372L45.7159 18.6272L45.7075 18.3171L42.3656 18.4079L42.374 18.718ZM45.8752 18.778L45.5651 18.7864L45.6362 21.4018L45.9462 21.3933L46.2563 21.3849L46.1852 18.7696L45.8752 18.778ZM45.7159 18.6272L45.7244 18.9372C45.6387 18.9395 45.5675 18.872 45.5651 18.7864L45.8752 18.778L46.1852 18.7696C46.1782 18.5127 45.9644 18.3101 45.7075 18.3171L45.7159 18.6272ZM42.2232 18.8772L42.5333 18.8688C42.5356 18.9544 42.4681 19.0257 42.3824 19.028L42.374 18.718L42.3656 18.4079C42.1087 18.4149 41.9062 18.6288 41.9132 18.8856L42.2232 18.8772ZM42.4877 22.1103L42.4363 21.8044C42.5292 21.7888 42.6145 21.8589 42.617 21.9531L42.307 21.9616L41.9969 21.97C42.0046 22.2525 42.2604 22.463 42.5392 22.4161L42.4877 22.1103ZM45.8169 21.5505L45.8683 21.8564C46.0971 21.8179 46.2626 21.6168 46.2563 21.3849L45.9462 21.3933L45.6362 21.4018C45.6341 21.3245 45.6892 21.2574 45.7655 21.2446L45.8169 21.5505Z" fill="#369BFD" mask="url(#path-9-outside-2_5146_4735)"/>
<path d="M21.7541 3.99054L20.7639 12.7187C20.7638 12.7197 20.763 12.7206 20.762 12.7209C20.7607 12.7212 20.7599 12.7224 20.7601 12.7237L20.7616 12.736C20.7618 12.7374 20.7618 12.7387 20.7617 12.74L20.0169 19.3153L19.9602 19.8107C19.9502 19.8979 19.8757 19.9632 19.7879 19.9616L19.2892 19.9526L16.5122 19.9042L16.1114 19.8967C16.0191 19.895 15.9451 19.8202 15.9442 19.728L15.8707 11.4887L15.9329 4.02592L15.9372 3.49688C15.9379 3.40516 16.0111 3.3305 16.1028 3.328L16.6317 3.31359L21.0194 3.19042L21.6514 3.17285C21.7549 3.16998 21.837 3.25937 21.8253 3.36225L21.7541 3.99054Z" fill="#369BFD"/>
<mask id="path-12-outside-3_5146_4735" maskUnits="userSpaceOnUse" x="19.5941" y="8.80947" width="5.52421" height="5.52421" fill="black">
<rect fill="white" x="19.5941" y="8.80947" width="5.52421" height="5.52421"/>
<path d="M24.356 13.0743C24.3474 13.1512 24.2836 13.2099 24.2063 13.2121L20.8306 13.308C20.7364 13.3107 20.6616 13.2294 20.6721 13.1358L21.0148 10.0684C21.0243 9.98331 21.101 9.92202 21.1861 9.93152L24.5096 10.3028C24.5947 10.3123 24.656 10.389 24.6465 10.4741L24.356 13.0743Z"/>
</mask>
<path d="M24.356 13.0743C24.3474 13.1512 24.2836 13.2099 24.2063 13.2121L20.8306 13.308C20.7364 13.3107 20.6616 13.2294 20.6721 13.1358L21.0148 10.0684C21.0243 9.98331 21.101 9.92202 21.1861 9.93152L24.5096 10.3028C24.5947 10.3123 24.656 10.389 24.6465 10.4741L24.356 13.0743Z" fill="#369BFD"/>
<path d="M20.8306 13.308L20.8394 13.6181L20.8306 13.308ZM24.2063 13.2121L24.1975 12.9021V12.9021L24.2063 13.2121ZM24.2063 13.2121L24.1975 12.9021L20.8218 12.998L20.8306 13.308L20.8394 13.6181L24.2151 13.5222L24.2063 13.2121ZM20.6721 13.1358L20.9803 13.1702L21.323 10.1029L21.0148 10.0684L20.7065 10.034L20.3639 13.1013L20.6721 13.1358ZM21.1861 9.93152L21.1517 10.2398L24.4751 10.611L24.5096 10.3028L24.544 9.99456L21.2205 9.62328L21.1861 9.93152ZM24.6465 10.4741L24.3382 10.4397L24.0477 13.0399L24.356 13.0743L24.6642 13.1088L24.9547 10.5086L24.6465 10.4741ZM24.5096 10.3028L24.4751 10.611C24.39 10.6015 24.3287 10.5248 24.3382 10.4397L24.6465 10.4741L24.9547 10.5086C24.9832 10.2532 24.7994 10.0231 24.544 9.99456L24.5096 10.3028ZM21.0148 10.0684L21.323 10.1029C21.3135 10.188 21.2368 10.2493 21.1517 10.2398L21.1861 9.93152L21.2205 9.62328C20.9652 9.59475 20.735 9.77864 20.7065 10.034L21.0148 10.0684ZM20.8306 13.308L20.8218 12.998C20.916 12.9953 20.9908 13.0766 20.9803 13.1702L20.6721 13.1358L20.3639 13.1013C20.3325 13.3823 20.5568 13.6261 20.8394 13.6181L20.8306 13.308ZM24.2063 13.2121L24.2151 13.5222C24.4469 13.5156 24.6385 13.3393 24.6642 13.1088L24.356 13.0743L24.0477 13.0399C24.0563 12.9631 24.1202 12.9043 24.1975 12.9021L24.2063 13.2121Z" fill="#369BFD" mask="url(#path-12-outside-3_5146_4735)"/>
</svg>
