<svg width="320" height="320" viewBox="0 0 320 320" fill="none" xmlns="http://www.w3.org/2000/svg">
<g clip-path="url(#clip0_5131_3447)">
<rect width="320" height="320" rx="72" fill="white"/>
<path d="M48.6997 170.678C48.6997 128.677 88.1877 90.5802 135.127 90.5802H185.934C232.873 90.5802 273.12 128.677 273.12 170.678C273.12 212.68 241.218 247.538 194.279 247.538H127.54C80.6013 247.538 48.6997 212.68 48.6997 170.678Z" fill="#BFE9FF"/>
<path d="M185.99 64.0809C170.684 51.5572 154.488 77.4163 148.303 91.9112L174.974 91.9112C185.024 87.8526 201.297 76.6045 185.99 64.0809Z" fill="#BFE9FF"/>
<path d="M133.72 73.4366C143.881 65.123 154.633 82.289 158.738 91.9112L141.033 91.9112C134.362 89.217 123.559 81.7502 133.72 73.4366Z" fill="#BFE9FF"/>
<path d="M199.302 133.007C221.039 133.007 238.66 150.629 238.66 172.366C238.66 194.103 221.039 211.725 199.302 211.725C180.555 211.725 164.872 198.619 160.91 181.07C156.948 198.619 141.265 211.725 122.519 211.725C100.782 211.725 83.1599 194.103 83.1599 172.366C83.1601 150.629 100.782 133.007 122.519 133.007C141.265 133.007 156.948 146.113 160.91 163.661C164.872 146.112 180.556 133.007 199.302 133.007Z" fill="white"/>
<path d="M115.037 174.282L136.807 168.839" stroke="black" stroke-width="6.9975" stroke-linecap="round"/>
<path d="M206.782 174.282L185.012 168.839" stroke="black" stroke-width="6.9975" stroke-linecap="round"/>
<path d="M156.197 178.424C159.037 176.475 162.783 176.475 165.622 178.424L175.8 185.405C178.212 187.06 178.212 190.621 175.8 192.275L165.622 199.257C162.783 201.205 159.037 201.205 156.197 199.257L146.019 192.275C143.607 190.621 143.607 187.06 146.019 185.405L156.197 178.424Z" fill="#FFD129"/>
</g>
<defs>
<clipPath id="clip0_5131_3447">
<rect width="320" height="320" rx="72" fill="white"/>
</clipPath>
</defs>
</svg>
