<svg width="342" height="64" viewBox="0 0 342 64" fill="none" xmlns="http://www.w3.org/2000/svg">
<rect width="342" height="64" rx="12" fill="#FFE200"/>
<rect x="0.5" y="0.5" width="341" height="63" rx="11.5" stroke="#180C1C" stroke-opacity="0.05"/>
<path d="M100.5 23.5405C106.576 23.5405 111.501 27.379 111.501 32.1153C111.501 36.8505 106.576 40.689 100.501 40.689C99.8963 40.6893 99.292 40.6508 98.692 40.5738L94.0741 43.594C93.5492 43.8717 93.3638 43.8413 93.5796 43.1614L94.5141 39.3082C91.4969 37.7787 89.5012 35.1282 89.5012 32.1153C89.5012 27.3801 94.425 23.5405 100.501 23.5405H100.5Z" fill="#391F20"/>
<path d="M122.681 39.334L121.259 37.786C123.707 36.526 125.507 34.798 126.605 32.818C125.723 32.872 124.805 32.89 123.959 32.89H121.763V31.036H123.905C125.003 31.036 126.263 31 127.433 30.892C127.667 30.1 127.793 29.272 127.829 28.426H122.231V26.554H130.205C130.205 26.752 130.223 26.968 130.223 27.166C130.223 33.124 126.893 37.012 122.681 39.334ZM134.543 41.386H132.239V25.204H134.543V31.378H136.757V33.358H134.543V41.386ZM138.765 39.334L137.343 37.786C139.791 36.526 141.591 34.798 142.689 32.818C141.807 32.872 140.889 32.89 140.043 32.89H137.847V31.036H139.989C141.087 31.036 142.347 31 143.517 30.892C143.751 30.1 143.877 29.272 143.913 28.426H138.315V26.554H146.289C146.289 26.752 146.307 26.968 146.307 27.166C146.307 33.124 142.977 37.012 138.765 39.334ZM150.627 41.386H148.323V25.204H150.627V31.378H152.841V33.358H150.627V41.386ZM168.763 39.964H153.319V38.056H159.835V35.104C156.937 34.852 154.939 33.034 154.939 30.406C154.939 27.724 157.027 25.888 160.015 25.69C160.321 25.672 160.681 25.672 161.041 25.672C161.401 25.672 161.761 25.672 162.067 25.69C165.055 25.888 167.143 27.724 167.143 30.406C167.143 33.034 165.127 34.852 162.247 35.104V38.056H168.763V39.964ZM162.049 27.598H162.067C161.761 27.58 161.401 27.562 161.041 27.562C160.681 27.562 160.321 27.58 160.015 27.598H160.033C158.287 27.742 157.315 29.002 157.315 30.406C157.315 31.81 158.287 33.07 160.033 33.214C160.339 33.25 160.681 33.25 161.041 33.25C161.383 33.25 161.743 33.25 162.049 33.214C163.795 33.07 164.767 31.81 164.767 30.406C164.767 29.002 163.795 27.742 162.049 27.598ZM188.521 39.964H173.077V38.056H179.683V35.788H175.039V29.956H184.165V28.048H175.039V26.158H186.469V31.828H177.343V33.88H186.829V35.788H182.095V38.056H188.521V39.964ZM204.605 39.784H189.161V37.876H199.277C199.961 34.978 200.483 31.036 200.555 28.246H190.799V26.338H202.895C202.787 30.136 202.319 34.654 201.617 37.876H204.605V39.784ZM219.357 36.868H217.053V25.204H219.357V36.868ZM219.717 41.116H208.215V35.428H210.555V39.244H219.717V41.116ZM215.001 29.722C215.001 32.116 213.003 34.006 210.339 34.006C207.675 34.006 205.677 32.116 205.677 29.722C205.677 27.328 207.675 25.438 210.339 25.438C213.003 25.438 215.001 27.328 215.001 29.722ZM210.339 32.134C211.743 32.134 212.697 31.072 212.697 29.722C212.697 28.372 211.743 27.31 210.339 27.31C208.935 27.31 207.981 28.372 207.981 29.722C207.981 31.072 208.935 32.134 210.339 32.134ZM231.607 30.496H221.455V28.588H231.607V30.496ZM234.667 41.386H232.363V25.204H234.667V32.008H236.935V33.988H234.667V41.386ZM231.193 35.176C231.193 37.444 229.411 39.316 226.711 39.316C224.011 39.316 222.229 37.444 222.229 35.176C222.229 32.908 224.011 31.036 226.711 31.036C229.411 31.036 231.193 32.908 231.193 35.176ZM226.711 37.444C228.061 37.444 228.889 36.49 228.889 35.176C228.889 33.862 228.061 32.908 226.711 32.908C225.361 32.908 224.533 33.862 224.533 35.176C224.533 36.49 225.361 37.444 226.711 37.444ZM229.807 27.76H223.615V25.852H229.807V27.76ZM251.345 41.386H249.041V25.204H251.345V41.386ZM239.015 39.298L237.593 37.75C241.571 35.608 243.965 32.08 244.271 28.462H238.565V26.554H246.683C246.719 32.692 243.209 36.886 239.015 39.298Z" fill="#391F20"/>
</svg>
