<svg width="16" height="16" viewBox="0 0 16 16" fill="none" xmlns="http://www.w3.org/2000/svg">
<path d="M13.2889 8.69387C13.163 9.65384 12.7781 10.5614 12.1756 11.3193C11.5731 12.0772 10.7757 12.6568 9.86884 12.9959C8.96199 13.335 7.97992 13.4209 7.02797 13.2443C6.07603 13.0676 5.19011 12.6352 4.46524 11.9934C3.74036 11.3516 3.20388 10.5245 2.91332 9.60097C2.62276 8.6774 2.58908 7.69217 2.81591 6.75092C3.04273 5.80968 3.52149 4.94793 4.20085 4.2581C4.88021 3.56828 5.73454 3.07639 6.6722 2.8352C9.27154 2.16853 11.9622 3.50653 12.9555 5.99987" stroke="#2D2D2E" stroke-width="1.33333" stroke-linecap="round" stroke-linejoin="round"/>
<path d="M13.3333 2.66675V6.00008H10" stroke="#2D2D2E" stroke-width="1.33333" stroke-linecap="round" stroke-linejoin="round"/>
</svg>
