<svg width="48" height="48" viewBox="0 0 48 48" fill="none" xmlns="http://www.w3.org/2000/svg">
<rect width="48" height="48" rx="24" fill="url(#paint0_linear_5146_6285)"/>
<path d="M16.6355 15.4369L32.018 15.4367C32.5323 15.4367 32.9855 15.4367 33.3453 15.4696C33.7033 15.5023 34.156 15.5789 34.5392 15.873C35.0343 16.2528 35.336 16.8323 35.3632 17.4557C35.3842 17.9384 35.1873 18.3531 35.0088 18.6652C34.8294 18.9787 34.5694 19.3499 34.2744 19.7712L25.4512 32.3717C25.0986 32.8752 24.7957 33.3079 24.5301 33.6233C24.2768 33.9242 23.9142 34.3015 23.3979 34.4389C22.7516 34.6109 22.062 34.4664 21.539 34.0495C21.1213 33.7164 20.9406 33.2253 20.8293 32.8481C20.7126 32.4525 20.6088 31.9347 20.488 31.332L19.3966 25.8889L26.4874 22.1977C26.9773 21.9427 27.1677 21.3388 26.9127 20.8489C26.6577 20.359 26.0538 20.1686 25.5639 20.4237L18.4731 24.1149L14.6404 20.0989C14.216 19.6542 13.8514 19.2722 13.5943 18.9497C13.3491 18.6422 13.0504 18.2125 13.0172 17.6793C12.9756 17.0118 13.2528 16.364 13.7644 15.9332C14.1731 15.5891 14.6902 15.5085 15.0819 15.4736C15.4927 15.4369 16.0208 15.4369 16.6355 15.4369Z" fill="white"/>
<defs>
<linearGradient id="paint0_linear_5146_6285" x1="2.42971" y1="11.3591" x2="45.7325" y2="36.36" gradientUnits="userSpaceOnUse">
<stop stop-color="#71DCF5"/>
<stop offset="1" stop-color="#2781FF"/>
</linearGradient>
</defs>
</svg>
