<svg width="242" height="130" viewBox="0 0 242 130" fill="none" xmlns="http://www.w3.org/2000/svg">
<path d="M25.1489 19.6428C28.4931 19.6428 31.7367 20.3317 34.8774 21.6077L34.8901 21.6125V21.6135C37.8364 22.9885 40.488 24.854 42.8433 27.2092L42.8501 27.2161L42.856 27.2229C44.8813 29.5246 46.4732 32.0829 47.7935 34.9749L48.0532 35.5579L48.0562 35.5647C49.3333 38.7085 50.021 42.1464 50.021 45.6819C50.021 49.3151 49.3331 52.6558 48.0562 55.7991L48.0552 55.803C46.6858 59.0309 45.0179 61.8797 42.8521 64.2424L42.8433 64.2512C40.4883 66.6061 37.8348 68.4732 34.8833 69.7522L34.8843 69.7532C31.7395 71.129 28.4934 71.8176 25.1489 71.8176C21.6114 71.8176 18.4604 71.1292 15.5054 69.7502V69.7493C12.4635 68.472 9.81121 66.6075 7.64893 64.2512L7.21338 63.802C5.06884 61.5314 3.44018 58.8377 2.24463 55.8059L1.99561 55.2122C0.794738 52.2344 0.276878 49.0828 0.276855 45.6819C0.276855 42.1519 0.865497 38.7102 2.24463 35.5579C3.52109 32.4181 5.28892 29.6685 7.64502 27.2141C9.81055 24.853 12.4655 22.9857 15.5083 21.6116L15.5122 21.6106C18.4632 20.3318 21.6113 19.6428 25.1489 19.6428ZM25.1489 33.7102C23.6426 33.7102 22.3216 34.086 21.0854 34.6565C19.7562 35.3222 18.6163 36.1775 17.6655 37.1282C16.6239 38.2665 15.8664 39.499 15.2964 40.9241L15.2935 40.9319H15.2925C14.6294 42.4474 14.3442 44.0618 14.3442 45.6819C14.3443 47.3978 14.6292 48.9147 15.2925 50.4309L15.2983 50.4446C15.8372 51.8815 16.5365 53.1292 17.4663 54.0471L17.6558 54.2258L17.6694 54.2385L17.6821 54.2532C18.5679 55.3161 19.6174 56.1283 20.8325 56.6917L21.0786 56.801L21.0894 56.8059L21.1001 56.8118C22.3162 57.4666 23.6304 57.7502 25.1489 57.7502C26.4698 57.7502 27.8882 57.4679 29.3091 56.8049L29.3169 56.801C30.6361 56.2356 31.7716 55.3858 32.8188 54.2434L32.8276 54.2346C33.7617 53.3005 34.5207 51.9798 35.1948 50.4407C35.7655 48.9176 36.0512 47.3967 36.0513 45.6819C36.0513 44.0632 35.7651 42.4454 35.1948 40.9231C34.5273 39.4954 33.7672 38.2614 32.8208 37.1233C31.7714 36.1711 30.6335 35.3196 29.312 34.6575C27.874 34.0833 26.4568 33.7102 25.1489 33.7102Z" fill="#369BFD" stroke="#369BFD" stroke-width="0.554233"/>
<path d="M117.957 45.5353C118.69 45.4324 119.367 45.9435 119.47 46.6766L126.954 99.9238C127.057 100.657 126.546 101.335 125.813 101.438L84.1177 107.298C83.3846 107.401 82.7064 106.89 82.6034 106.157L75.1199 52.9096C75.0169 52.1764 75.528 51.4983 76.2611 51.3952L117.957 45.5353ZM91.7549 61.7538C91.3249 61.8142 91.0255 62.2126 91.086 62.6426L95.2682 92.401C95.3289 92.8307 95.7262 93.1304 96.1561 93.07L110.512 91.0524C110.942 90.9918 111.241 90.5943 111.181 90.1645L106.999 60.4062C106.938 59.9763 106.541 59.676 106.111 59.7362L91.7549 61.7538Z" fill="#369BFD" stroke="#369BFD" stroke-width="0.554233"/>
<path d="M178.999 3.30884C179.732 3.41192 180.243 4.09009 180.14 4.82321L179.922 6.37534C179.861 6.80531 180.161 7.2028 180.591 7.26323L204.091 10.566C204.825 10.669 205.336 11.3472 205.233 12.0804L203.77 22.4888C203.667 23.2219 202.988 23.733 202.255 23.63L192.329 22.2349C191.898 22.1744 191.501 22.4739 191.441 22.904L187.986 47.4875C187.926 47.9105 188.215 48.3035 188.636 48.3729L202.123 50.5927C202.841 50.7111 203.333 51.3817 203.232 52.1026L201.767 62.5275C201.663 63.2642 200.98 63.776 200.244 63.6674L149.652 56.1983C148.924 56.0905 148.418 55.4155 148.521 54.6862L156.005 1.43128C156.108 0.698128 156.786 0.187073 157.519 0.290111L178.999 3.30884ZM169.257 15.2618C168.827 15.2013 168.43 15.5008 168.369 15.9308L164.403 44.1486C164.343 44.5787 164.642 44.9761 165.072 45.0365L172.978 46.1476C173.408 46.208 173.806 45.9085 173.866 45.4785L177.832 17.2607C177.892 16.8307 177.593 16.4333 177.163 16.3728L169.257 15.2618Z" fill="#369BFD" stroke="#369BFD" stroke-width="0.554233"/>
<rect x="199.612" y="73.0251" width="20.6414" height="20.6414" rx="10.3207" fill="#FFD129"/>
<path d="M233.909 14.1115L226.123 43.2054C226.122 43.2089 226.119 43.2114 226.115 43.2117C226.111 43.212 226.107 43.2157 226.107 43.2202L226.107 43.2582C226.107 43.2624 226.106 43.2665 226.105 43.2706L220.239 65.1935L219.91 66.4248C219.768 66.9542 219.247 67.2893 218.706 67.1986L217.45 66.9877L208.06 65.4127L207.164 65.2619C206.596 65.1663 206.208 64.6357 206.288 64.0653L210.167 36.4623L214.151 11.2795L214.362 9.94402C214.452 9.37886 214.972 8.98576 215.54 9.05444L216.883 9.21674L231.824 11.0267L233.427 11.2206C234.07 11.2983 234.494 11.9265 234.327 12.5514L233.909 14.1115Z" fill="#369BFD"/>
<mask id="path-6-outside-1_5131_3940" maskUnits="userSpaceOnUse" x="223.174" y="31.5411" width="19.3165" height="18.6069" fill="black">
<rect fill="white" x="223.174" y="31.5411" width="19.3165" height="18.6069"/>
<path d="M238.111 46.3926C238.043 46.6487 237.797 46.8156 237.534 46.7839L226.041 45.396C225.72 45.3573 225.507 45.0438 225.59 44.7316L228.31 34.5017C228.385 34.2179 228.676 34.0489 228.96 34.1244L240.039 37.0694C240.323 37.1449 240.492 37.4361 240.417 37.7199L238.111 46.3926Z"/>
</mask>
<path d="M238.111 46.3926C238.043 46.6487 237.797 46.8156 237.534 46.7839L226.041 45.396C225.72 45.3573 225.507 45.0438 225.59 44.7316L228.31 34.5017C228.385 34.2179 228.676 34.0489 228.96 34.1244L240.039 37.0694C240.323 37.1449 240.492 37.4361 240.417 37.7199L238.111 46.3926Z" fill="#369BFD"/>
<path d="M226.041 45.396L226.168 44.3403L226.041 45.396ZM237.534 46.7839L237.406 47.8396L237.534 46.7839ZM237.534 46.7839L237.661 45.7281L226.168 44.3403L226.041 45.396L225.913 46.4518L237.406 47.8396L237.534 46.7839ZM225.59 44.7316L226.618 45.0047L229.337 34.7748L228.31 34.5017L227.282 34.2285L224.563 44.4584L225.59 44.7316ZM228.96 34.1244L228.687 35.1521L239.766 38.0971L240.039 37.0694L240.313 36.0417L229.233 33.0967L228.96 34.1244ZM240.417 37.7199L239.389 37.4467L237.084 46.1194L238.111 46.3926L239.139 46.6658L241.444 37.9931L240.417 37.7199ZM240.039 37.0694L239.766 38.0971C239.482 38.0217 239.313 37.7305 239.389 37.4467L240.417 37.7199L241.444 37.9931C241.671 37.1417 241.164 36.268 240.313 36.0417L240.039 37.0694ZM228.31 34.5017L229.337 34.7748C229.262 35.0586 228.971 35.2275 228.687 35.1521L228.96 34.1244L229.233 33.0967C228.382 32.8703 227.508 33.3771 227.282 34.2285L228.31 34.5017ZM226.041 45.396L226.168 44.3403C226.489 44.379 226.701 44.6925 226.618 45.0047L225.59 44.7316L224.563 44.4584C224.314 45.3951 224.951 46.3356 225.913 46.4518L226.041 45.396ZM237.534 46.7839L237.406 47.8396C238.196 47.9349 238.935 47.4343 239.139 46.6658L238.111 46.3926L237.084 46.1194C237.152 45.8632 237.398 45.6963 237.661 45.7281L237.534 46.7839Z" fill="#369BFD" mask="url(#path-6-outside-1_5131_3940)"/>
<path d="M144.405 43.8778L145.172 73.9858C145.172 73.9894 145.17 73.9927 145.167 73.994C145.162 73.9956 145.16 74.0001 145.161 74.0043L145.172 74.0409C145.173 74.0449 145.174 74.0491 145.174 74.0533L145.753 96.7401L145.785 98.0143C145.799 98.5622 145.394 99.031 144.85 99.097L143.585 99.2505L134.133 100.398L133.232 100.507C132.66 100.576 132.137 100.177 132.052 99.6069L127.96 72.0347L124.653 46.754L124.478 45.4134C124.404 44.846 124.792 44.3217 125.356 44.2267L126.689 44.0024L141.532 41.5093L143.125 41.2415C143.763 41.1342 144.348 41.6166 144.364 42.2632L144.405 43.8778Z" fill="#369BFD"/>
<mask id="path-9-outside-2_5131_3940" maskUnits="userSpaceOnUse" x="142.694" y="61.8071" width="16.4014" height="15.429" fill="black">
<rect fill="white" x="142.694" y="61.8071" width="16.4014" height="15.429"/>
<path d="M157.529 73.3474C157.536 73.6124 157.347 73.8422 157.085 73.8862L145.669 75.8082C145.351 75.8618 145.058 75.6213 145.05 75.2983L144.762 64.718C144.754 64.4245 144.986 64.1801 145.279 64.1721L156.739 63.8608C157.033 63.8528 157.277 64.0843 157.285 64.3778L157.529 73.3474Z"/>
</mask>
<path d="M157.529 73.3474C157.536 73.6124 157.347 73.8422 157.085 73.8862L145.669 75.8082C145.351 75.8618 145.058 75.6213 145.05 75.2983L144.762 64.718C144.754 64.4245 144.986 64.1801 145.279 64.1721L156.739 63.8608C157.033 63.8528 157.277 64.0843 157.285 64.3778L157.529 73.3474Z" fill="#369BFD"/>
<path d="M157.285 64.3778L158.348 64.349L157.285 64.3778ZM145.669 75.8082L145.846 76.8568L145.669 75.8082ZM157.085 73.8862L157.262 74.9348L157.085 73.8862ZM157.529 73.3474L158.592 73.3185L157.529 73.3474ZM157.085 73.8862L156.909 72.8375L145.493 74.7595L145.669 75.8082L145.846 76.8568L157.262 74.9348L157.085 73.8862ZM145.05 75.2983L146.113 75.2694L145.825 64.6892L144.762 64.718L143.699 64.7469L143.987 75.3272L145.05 75.2983ZM145.279 64.1721L145.308 65.2351L156.768 64.9238L156.739 63.8608L156.71 62.7977L145.25 63.1091L145.279 64.1721ZM157.285 64.3778L156.222 64.4067L156.466 73.3763L157.529 73.3474L158.592 73.3185L158.348 64.349L157.285 64.3778ZM156.739 63.8608L156.768 64.9238C156.474 64.9318 156.23 64.7003 156.222 64.4067L157.285 64.3778L158.348 64.349C158.324 63.4683 157.591 62.7738 156.71 62.7977L156.739 63.8608ZM144.762 64.718L145.825 64.6892C145.833 64.9827 145.602 65.2271 145.308 65.2351L145.279 64.1721L145.25 63.1091C144.37 63.133 143.675 63.8663 143.699 64.7469L144.762 64.718ZM145.669 75.8082L145.493 74.7595C145.812 74.7059 146.104 74.9465 146.113 75.2694L145.05 75.2983L143.987 75.3272C144.013 76.2961 144.89 77.0178 145.846 76.8568L145.669 75.8082ZM157.085 73.8862L157.262 74.9348C158.046 74.8028 158.613 74.1134 158.592 73.3185L157.529 73.3474L156.466 73.3763C156.458 73.1113 156.647 72.8815 156.909 72.8375L157.085 73.8862Z" fill="#369BFD" mask="url(#path-9-outside-2_5131_3940)"/>
<path d="M74.5858 13.6832L71.1915 43.609C71.1911 43.6127 71.1884 43.6156 71.1849 43.6164C71.1805 43.6174 71.1776 43.6216 71.1783 43.626L71.1836 43.6636C71.1842 43.6677 71.1842 43.672 71.1837 43.6761L68.627 66.2258L68.4342 67.9254C68.4003 68.2244 68.1447 68.4487 67.8438 68.4434L66.1337 68.4132L56.6143 68.2453L55.2396 68.2202C54.9234 68.2145 54.6692 67.958 54.6664 67.6417L54.4133 39.3019L54.6261 13.8067L54.6412 11.9924C54.6438 11.6783 54.8946 11.4225 55.2086 11.4136L57.0224 11.3624L72.067 10.9409L74.2338 10.8798C74.5888 10.8698 74.8704 11.1765 74.8304 11.5294L74.5858 13.6832Z" fill="#369BFD"/>
<mask id="path-12-outside-3_5131_3940" maskUnits="userSpaceOnUse" x="68.6819" y="31.7823" width="17.5664" height="16.6836" fill="black">
<rect fill="white" x="68.6819" y="31.7823" width="17.5664" height="16.6836"/>
<path d="M83.5084 44.8287C83.479 45.0921 83.2601 45.2937 82.9951 45.3012L71.4222 45.6296C71.0992 45.6388 70.8428 45.3602 70.8787 45.0391L72.0538 34.5204C72.0864 34.2285 72.3494 34.0184 72.6412 34.051L84.0352 35.3238C84.3271 35.3564 84.5372 35.6195 84.5046 35.9113L83.5084 44.8287Z"/>
</mask>
<path d="M83.5084 44.8287C83.479 45.0921 83.2601 45.2937 82.9951 45.3012L71.4222 45.6296C71.0992 45.6388 70.8428 45.3602 70.8787 45.0391L72.0538 34.5204C72.0864 34.2285 72.3494 34.0184 72.6412 34.051L84.0352 35.3238C84.3271 35.3564 84.5372 35.6195 84.5046 35.9113L83.5084 44.8287Z" fill="#369BFD"/>
<path d="M82.9951 45.3012L82.9649 44.2382L82.9951 45.3012ZM82.9951 45.3012L82.9649 44.2382L71.392 44.5666L71.4222 45.6296L71.4523 46.6926L83.0253 46.3642L82.9951 45.3012ZM70.8787 45.0391L71.9355 45.1572L73.1106 34.6384L72.0538 34.5204L70.9969 34.4023L69.8218 44.921L70.8787 45.0391ZM72.6412 34.051L72.5231 35.1078L83.9172 36.3807L84.0352 35.3238L84.1533 34.267L72.7593 32.9941L72.6412 34.051ZM84.5046 35.9113L83.4478 35.7932L82.4516 44.7106L83.5084 44.8287L84.5653 44.9468L85.5615 36.0294L84.5046 35.9113ZM84.0352 35.3238L83.9172 36.3807C83.6253 36.3481 83.4152 36.0851 83.4478 35.7932L84.5046 35.9113L85.5615 36.0294C85.6593 35.1538 85.0288 34.3648 84.1533 34.267L84.0352 35.3238ZM72.0538 34.5204L73.1106 34.6384C73.078 34.9303 72.815 35.1404 72.5231 35.1078L72.6412 34.051L72.7593 32.9941C71.8838 32.8963 71.0947 33.5268 70.9969 34.4023L72.0538 34.5204ZM71.4222 45.6296L71.392 44.5666C71.715 44.5575 71.9714 44.8361 71.9355 45.1572L70.8787 45.0391L69.8218 44.921C69.7142 45.8843 70.4835 46.7201 71.4523 46.6926L71.4222 45.6296ZM82.9951 45.3012L83.0253 46.3642C83.8201 46.3416 84.477 45.737 84.5653 44.9468L83.5084 44.8287L82.4516 44.7106C82.481 44.4472 82.7 44.2457 82.9649 44.2382L82.9951 45.3012Z" fill="#369BFD" mask="url(#path-12-outside-3_5131_3940)"/>
</svg>
