<svg width="24" height="24" viewBox="0 0 24 24" fill="none" xmlns="http://www.w3.org/2000/svg">
<g clip-path="url(#clip0_5203_3324)">
<path fill-rule="evenodd" clip-rule="evenodd" d="M14.9279 2.14434C14.5665 2.54646 14.3104 3.03195 14.1827 3.55733C14.055 4.08271 14.0597 4.63157 14.1962 5.15472C14.3328 5.67786 14.597 6.15897 14.9651 6.55493C15.3333 6.95089 15.7939 7.24933 16.3058 7.42353L16.7182 7.56426C16.8762 7.6181 17.0197 7.70747 17.1377 7.82549C17.2557 7.94351 17.3451 8.08704 17.3989 8.24502L17.5408 8.65741C17.7148 9.16924 18.0131 9.62989 18.409 9.99808C18.8048 10.3663 19.2858 10.6305 19.8089 10.767C20.332 10.9036 20.8808 10.9082 21.4061 10.7805C21.9314 10.6528 22.4168 10.3967 22.8189 10.0353L22.8178 16.3269C22.8178 17.1949 22.4729 18.0274 21.8591 18.6412C21.2454 19.255 20.4129 19.5998 19.5449 19.5998H15.5116L12.6641 21.4981C12.2059 21.8036 11.6103 21.8036 11.1521 21.4981L8.30572 19.5998H4.27241C3.40439 19.5998 2.57191 19.255 1.95812 18.6412C1.34433 18.0274 0.999512 17.1949 0.999512 16.3269V5.41724C0.999512 4.54921 1.34433 3.71673 1.95812 3.10295C2.57191 2.48916 3.40439 2.14434 4.27241 2.14434H14.9279ZM8.0908 9.78111C7.65678 9.78111 7.24055 9.95352 6.93365 10.2604C6.62676 10.5673 6.45435 10.9835 6.45435 11.4176C6.45435 11.8516 6.62676 12.2678 6.93365 12.5747C7.24055 12.8816 7.65678 13.054 8.0908 13.054C8.52481 13.054 8.94105 12.8816 9.24794 12.5747C9.55484 12.2678 9.72725 11.8516 9.72725 11.4176C9.72725 10.9835 9.55484 10.5673 9.24794 10.2604C8.94105 9.95352 8.52481 9.78111 8.0908 9.78111ZM15.7276 9.78111C15.2936 9.78111 14.8773 9.95352 14.5704 10.2604C14.2635 10.5673 14.0911 10.9835 14.0911 11.4176C14.0911 11.8516 14.2635 12.2678 14.5704 12.5747C14.8773 12.8816 15.2936 13.054 15.7276 13.054C16.1616 13.054 16.5778 12.8816 16.8847 12.5747C17.1916 12.2678 17.364 11.8516 17.364 11.4176C17.364 10.9835 17.1916 10.5673 16.8847 10.2604C16.5778 9.95352 16.1616 9.78111 15.7276 9.78111ZM20.6369 -0.0375977C20.8645 -0.0375069 21.0863 0.0337452 21.2714 0.166184C21.4565 0.298622 21.5955 0.485616 21.669 0.700987L21.8108 1.11337C22.1381 2.07233 22.8909 2.82619 23.8509 3.15348L24.2622 3.29422C24.4773 3.36794 24.6641 3.50704 24.7962 3.69208C24.9284 3.87713 24.9995 4.09886 24.9995 4.32627C24.9995 4.55368 24.9284 4.77541 24.7962 4.96046C24.6641 5.1455 24.4773 5.28461 24.2622 5.35833L23.8498 5.50015C22.8909 5.82744 22.137 6.58021 21.8097 7.54026L21.669 7.95155C21.5953 8.16669 21.4561 8.3534 21.2711 8.4856C21.0861 8.6178 20.8643 8.68887 20.6369 8.68887C20.4095 8.68887 20.1878 8.6178 20.0027 8.4856C19.8177 8.3534 19.6786 8.16669 19.6049 7.95155L19.463 7.53917C19.3015 7.06584 19.0336 6.63584 18.6799 6.28218C18.3263 5.92853 17.8963 5.66063 17.4229 5.49906L17.0116 5.35833C16.7965 5.28461 16.6098 5.1455 16.4776 4.96046C16.3454 4.77541 16.2743 4.55368 16.2743 4.32627C16.2743 4.09886 16.3454 3.87713 16.4776 3.69208C16.6098 3.50704 16.7965 3.36794 17.0116 3.29422L17.424 3.15239C18.383 2.8251 19.1368 2.07233 19.4641 1.11228L19.6049 0.700987C19.6784 0.485616 19.8174 0.298622 20.0024 0.166184C20.1875 0.0337452 20.4093 -0.0375069 20.6369 -0.0375977Z" fill="url(#paint0_linear_5203_3324)"/>
</g>
<defs>
<linearGradient id="paint0_linear_5203_3324" x1="2.21437" y1="5.11301" x2="22.7567" y2="18.1912" gradientUnits="userSpaceOnUse">
<stop stop-color="#71DCF5"/>
<stop offset="1" stop-color="#2781FF"/>
</linearGradient>
<clipPath id="clip0_5203_3324">
<rect width="24" height="24" fill="white"/>
</clipPath>
</defs>
</svg>
